<?xml version="1.0" encoding="us-ascii" standalone="no"?><svg xmlns="http://www.w3.org/2000/svg" xmlns:xlink="http://www.w3.org/1999/xlink" contentStyleType="text/css" height="1049px" preserveAspectRatio="none" style="width:533px;height:1049px;background:#FFFFFF;" version="1.1" viewBox="0 0 533 1049" width="533px" zoomAndPan="magnify"><defs/><g><!--class Person--><g id="elem_Person"><rect codeLine="6" fill="#F1F1F1" height="292.4531" id="Person" rx="2.5" ry="2.5" style="stroke:#181818;stroke-width:0.5;" width="228" x="7" y="609"/><ellipse cx="92.25" cy="625" fill="#ADD1B2" rx="11" ry="11" style="stroke:#181818;stroke-width:1.0;"/><path d="M94.5938,620.6719 C93.6563,620.2344 93.0625,620.0938 92.1875,620.0938 C89.5625,620.0938 87.5625,622.1719 87.5625,624.8906 L87.5625,626.0156 C87.5625,628.5938 89.6719,630.4844 92.5625,630.4844 C93.7813,630.4844 94.9375,630.1875 95.6875,629.6406 C96.2656,629.2344 96.5938,628.7813 96.5938,628.3906 C96.5938,627.9375 96.2031,627.5469 95.7344,627.5469 C95.5156,627.5469 95.3125,627.625 95.125,627.8125 C94.6719,628.2969 94.6719,628.2969 94.4844,628.3906 C94.0625,628.6563 93.375,628.7813 92.6094,628.7813 C90.5625,628.7813 89.2656,627.6875 89.2656,625.9844 L89.2656,624.8906 C89.2656,623.1094 90.5156,621.7969 92.25,621.7969 C92.8281,621.7969 93.4375,621.9531 93.9063,622.2031 C94.3906,622.4844 94.5625,622.7031 94.6563,623.1094 C94.7188,623.5156 94.75,623.6406 94.8906,623.7656 C95.0313,623.9063 95.2656,624.0156 95.4844,624.0156 C95.75,624.0156 96.0156,623.875 96.1875,623.6563 C96.2969,623.5 96.3281,623.3125 96.3281,622.8906 L96.3281,621.4688 C96.3281,621.0313 96.3125,620.9063 96.2188,620.75 C96.0625,620.4844 95.7813,620.3438 95.4844,620.3438 C95.1875,620.3438 94.9844,620.4375 94.7656,620.75 L94.5938,620.6719 Z " fill="#000000"/><text fill="#000000" font-family="sans-serif" font-size="14" lengthAdjust="spacing" textLength="49" x="112.75" y="629.8467">Person</text><line style="stroke:#181818;stroke-width:0.5;" x1="8" x2="234" y1="641" y2="641"/><ellipse cx="18" cy="654.6484" fill="none" rx="3" ry="3" style="stroke:#038048;stroke-width:1.0;"/><text fill="#000000" font-family="sans-serif" font-size="14" lengthAdjust="spacing" textLength="91" x="27" y="657.9951">ID: uuid.UUID</text><ellipse cx="18" cy="670.9453" fill="none" rx="3" ry="3" style="stroke:#038048;stroke-width:1.0;"/><text fill="#000000" font-family="sans-serif" font-size="14" lengthAdjust="spacing" textLength="159" x="27" y="674.292">CreatedAt: time.Time</text><ellipse cx="18" cy="687.2422" fill="none" rx="3" ry="3" style="stroke:#038048;stroke-width:1.0;"/><text fill="#000000" font-family="sans-serif" font-size="14" lengthAdjust="spacing" textLength="162" x="27" y="690.5889">UpdatedAt: time.Time</text><ellipse cx="18" cy="703.5391" fill="none" rx="3" ry="3" style="stroke:#038048;stroke-width:1.0;"/><text fill="#000000" font-family="sans-serif" font-size="14" lengthAdjust="spacing" textLength="202" x="27" y="706.8857">DeletedAt: gorm.DeletedAt</text><ellipse cx="18" cy="719.8359" fill="none" rx="3" ry="3" style="stroke:#038048;stroke-width:1.0;"/><text fill="#000000" font-family="sans-serif" font-size="14" lengthAdjust="spacing" textLength="95" x="27" y="723.1826">About: string</text><ellipse cx="18" cy="736.1328" fill="none" rx="3" ry="3" style="stroke:#038048;stroke-width:1.0;"/><text fill="#000000" font-family="sans-serif" font-size="14" lengthAdjust="spacing" textLength="90" x="27" y="739.4795">Label: string</text><ellipse cx="18" cy="752.4297" fill="none" rx="3" ry="3" style="stroke:#038048;stroke-width:1.0;"/><text fill="#000000" font-family="sans-serif" font-size="14" lengthAdjust="spacing" textLength="133" x="27" y="755.7764">GivenName: string</text><ellipse cx="18" cy="768.7266" fill="none" rx="3" ry="3" style="stroke:#038048;stroke-width:1.0;"/><text fill="#000000" font-family="sans-serif" font-size="14" lengthAdjust="spacing" textLength="138" x="27" y="772.0732">FamilyName: string</text><ellipse cx="18" cy="785.0234" fill="none" rx="3" ry="3" style="stroke:#038048;stroke-width:1.0;"/><text fill="#000000" font-family="sans-serif" font-size="14" lengthAdjust="spacing" textLength="142" x="27" y="788.3701">PlaceOfBirth: string</text><ellipse cx="18" cy="801.3203" fill="none" rx="3" ry="3" style="stroke:#038048;stroke-width:1.0;"/><text fill="#000000" font-family="sans-serif" font-size="14" lengthAdjust="spacing" textLength="132" x="27" y="804.667">Citizenship: string</text><ellipse cx="18" cy="817.6172" fill="none" rx="3" ry="3" style="stroke:#038048;stroke-width:1.0;"/><text fill="#000000" font-family="sans-serif" font-size="14" lengthAdjust="spacing" textLength="155" x="27" y="820.9639">BirthDate: time.Time</text><ellipse cx="18" cy="833.9141" fill="none" rx="3" ry="3" style="stroke:#038048;stroke-width:1.0;"/><text fill="#000000" font-family="sans-serif" font-size="14" lengthAdjust="spacing" textLength="163" x="27" y="837.2607">DeathDate: time.Time</text><ellipse cx="18" cy="850.2109" fill="none" rx="3" ry="3" style="stroke:#038048;stroke-width:1.0;"/><text fill="#000000" font-family="sans-serif" font-size="14" lengthAdjust="spacing" textLength="118" x="27" y="853.5576">Identifier: string</text><ellipse cx="18" cy="866.5078" fill="none" rx="3" ry="3" style="stroke:#038048;stroke-width:1.0;"/><text fill="#000000" font-family="sans-serif" font-size="14" lengthAdjust="spacing" textLength="182" x="27" y="869.8545">UpperFamilyName: string</text><ellipse cx="18" cy="882.8047" fill="none" rx="3" ry="3" style="stroke:#038048;stroke-width:1.0;"/><text fill="#000000" font-family="sans-serif" font-size="14" lengthAdjust="spacing" textLength="177" x="27" y="886.1514">UpperGivenName: string</text><line style="stroke:#181818;stroke-width:0.5;" x1="8" x2="234" y1="893.4531" y2="893.4531"/></g><!--class App--><g id="elem_App"><rect codeLine="25" fill="#F1F1F1" height="113.1875" id="App" rx="2.5" ry="2.5" style="stroke:#181818;stroke-width:0.5;" width="167" x="209.5" y="7"/><ellipse cx="273.75" cy="23" fill="#ADD1B2" rx="11" ry="11" style="stroke:#181818;stroke-width:1.0;"/><path d="M276.0938,18.6719 C275.1563,18.2344 274.5625,18.0938 273.6875,18.0938 C271.0625,18.0938 269.0625,20.1719 269.0625,22.8906 L269.0625,24.0156 C269.0625,26.5938 271.1719,28.4844 274.0625,28.4844 C275.2813,28.4844 276.4375,28.1875 277.1875,27.6406 C277.7656,27.2344 278.0938,26.7813 278.0938,26.3906 C278.0938,25.9375 277.7031,25.5469 277.2344,25.5469 C277.0156,25.5469 276.8125,25.625 276.625,25.8125 C276.1719,26.2969 276.1719,26.2969 275.9844,26.3906 C275.5625,26.6563 274.875,26.7813 274.1094,26.7813 C272.0625,26.7813 270.7656,25.6875 270.7656,23.9844 L270.7656,22.8906 C270.7656,21.1094 272.0156,19.7969 273.75,19.7969 C274.3281,19.7969 274.9375,19.9531 275.4063,20.2031 C275.8906,20.4844 276.0625,20.7031 276.1563,21.1094 C276.2188,21.5156 276.25,21.6406 276.3906,21.7656 C276.5313,21.9063 276.7656,22.0156 276.9844,22.0156 C277.25,22.0156 277.5156,21.875 277.6875,21.6563 C277.7969,21.5 277.8281,21.3125 277.8281,20.8906 L277.8281,19.4688 C277.8281,19.0313 277.8125,18.9063 277.7188,18.75 C277.5625,18.4844 277.2813,18.3438 276.9844,18.3438 C276.6875,18.3438 276.4844,18.4375 276.2656,18.75 L276.0938,18.6719 Z " fill="#000000"/><text fill="#000000" font-family="sans-serif" font-size="14" lengthAdjust="spacing" textLength="30" x="294.25" y="27.8467">App</text><line style="stroke:#181818;stroke-width:0.5;" x1="210.5" x2="375.5" y1="39" y2="39"/><ellipse cx="220.5" cy="52.6484" fill="none" rx="3" ry="3" style="stroke:#038048;stroke-width:1.0;"/><text fill="#000000" font-family="sans-serif" font-size="14" lengthAdjust="spacing" textLength="141" x="229.5" y="55.9951">Router: *gin.Engine</text><ellipse cx="220.5" cy="68.9453" fill="none" rx="3" ry="3" style="stroke:#038048;stroke-width:1.0;"/><text fill="#000000" font-family="sans-serif" font-size="14" lengthAdjust="spacing" textLength="103" x="229.5" y="72.292">Config: Config</text><ellipse cx="220.5" cy="85.2422" fill="none" rx="3" ry="3" style="stroke:#038048;stroke-width:1.0;"/><text fill="#000000" font-family="sans-serif" font-size="14" lengthAdjust="spacing" textLength="101" x="229.5" y="88.5889">DB: *gorm.DB</text><line style="stroke:#181818;stroke-width:0.5;" x1="210.5" x2="375.5" y1="95.8906" y2="95.8906"/><ellipse cx="220.5" cy="109.5391" fill="#84BE84" rx="3" ry="3" style="stroke:#038048;stroke-width:1.0;"/><text fill="#000000" font-family="sans-serif" font-size="14" lengthAdjust="spacing" textLength="103" x="229.5" y="112.8857">SetupRoutes()</text></g><!--class Controllers--><g id="elem_Controllers"><rect codeLine="33" fill="#F1F1F1" height="129.4844" id="Controllers" rx="2.5" ry="2.5" style="stroke:#181818;stroke-width:0.5;" width="297" x="107.5" y="403"/><ellipse cx="211.75" cy="419" fill="#ADD1B2" rx="11" ry="11" style="stroke:#181818;stroke-width:1.0;"/><path d="M214.0938,414.6719 C213.1563,414.2344 212.5625,414.0938 211.6875,414.0938 C209.0625,414.0938 207.0625,416.1719 207.0625,418.8906 L207.0625,420.0156 C207.0625,422.5938 209.1719,424.4844 212.0625,424.4844 C213.2813,424.4844 214.4375,424.1875 215.1875,423.6406 C215.7656,423.2344 216.0938,422.7813 216.0938,422.3906 C216.0938,421.9375 215.7031,421.5469 215.2344,421.5469 C215.0156,421.5469 214.8125,421.625 214.625,421.8125 C214.1719,422.2969 214.1719,422.2969 213.9844,422.3906 C213.5625,422.6563 212.875,422.7813 212.1094,422.7813 C210.0625,422.7813 208.7656,421.6875 208.7656,419.9844 L208.7656,418.8906 C208.7656,417.1094 210.0156,415.7969 211.75,415.7969 C212.3281,415.7969 212.9375,415.9531 213.4063,416.2031 C213.8906,416.4844 214.0625,416.7031 214.1563,417.1094 C214.2188,417.5156 214.25,417.6406 214.3906,417.7656 C214.5313,417.9063 214.7656,418.0156 214.9844,418.0156 C215.25,418.0156 215.5156,417.875 215.6875,417.6563 C215.7969,417.5 215.8281,417.3125 215.8281,416.8906 L215.8281,415.4688 C215.8281,415.0313 215.8125,414.9063 215.7188,414.75 C215.5625,414.4844 215.2813,414.3438 214.9844,414.3438 C214.6875,414.3438 214.4844,414.4375 214.2656,414.75 L214.0938,414.6719 Z " fill="#000000"/><text fill="#000000" font-family="sans-serif" font-size="14" lengthAdjust="spacing" textLength="80" x="232.25" y="423.8467">Controllers</text><line style="stroke:#181818;stroke-width:0.5;" x1="108.5" x2="403.5" y1="435" y2="435"/><line style="stroke:#181818;stroke-width:0.5;" x1="108.5" x2="403.5" y1="443" y2="443"/><ellipse cx="118.5" cy="456.6484" fill="#84BE84" rx="3" ry="3" style="stroke:#038048;stroke-width:1.0;"/><text fill="#000000" font-family="sans-serif" font-size="14" lengthAdjust="spacing" textLength="234" x="127.5" y="459.9951">GetMEPsHandler(c *gin.Context)</text><ellipse cx="118.5" cy="472.9453" fill="#84BE84" rx="3" ry="3" style="stroke:#038048;stroke-width:1.0;"/><text fill="#000000" font-family="sans-serif" font-size="14" lengthAdjust="spacing" textLength="268" x="127.5" y="476.292">CreatePersonHandler(c *gin.Context)</text><ellipse cx="118.5" cy="489.2422" fill="#84BE84" rx="3" ry="3" style="stroke:#038048;stroke-width:1.0;"/><text fill="#000000" font-family="sans-serif" font-size="14" lengthAdjust="spacing" textLength="271" x="127.5" y="492.5889">UpdatePersonHandler(c *gin.Context)</text><ellipse cx="118.5" cy="505.5391" fill="#84BE84" rx="3" ry="3" style="stroke:#038048;stroke-width:1.0;"/><text fill="#000000" font-family="sans-serif" font-size="14" lengthAdjust="spacing" textLength="268" x="127.5" y="508.8857">DeletePersonHandler(c *gin.Context)</text><ellipse cx="118.5" cy="521.8359" fill="#84BE84" rx="3" ry="3" style="stroke:#038048;stroke-width:1.0;"/><text fill="#000000" font-family="sans-serif" font-size="14" lengthAdjust="spacing" textLength="246" x="127.5" y="525.1826">GetPersonHandler(c *gin.Context)</text></g><!--class Database--><g id="elem_Database"><rect codeLine="42" fill="#F1F1F1" height="64.2969" id="Database" rx="2.5" ry="2.5" style="stroke:#181818;stroke-width:0.5;" width="100" x="187" y="978"/><ellipse cx="202" cy="994" fill="#ADD1B2" rx="11" ry="11" style="stroke:#181818;stroke-width:1.0;"/><path d="M204.3438,989.6719 C203.4063,989.2344 202.8125,989.0938 201.9375,989.0938 C199.3125,989.0938 197.3125,991.1719 197.3125,993.8906 L197.3125,995.0156 C197.3125,997.5938 199.4219,999.4844 202.3125,999.4844 C203.5313,999.4844 204.6875,999.1875 205.4375,998.6406 C206.0156,998.2344 206.3438,997.7813 206.3438,997.3906 C206.3438,996.9375 205.9531,996.5469 205.4844,996.5469 C205.2656,996.5469 205.0625,996.625 204.875,996.8125 C204.4219,997.2969 204.4219,997.2969 204.2344,997.3906 C203.8125,997.6563 203.125,997.7813 202.3594,997.7813 C200.3125,997.7813 199.0156,996.6875 199.0156,994.9844 L199.0156,993.8906 C199.0156,992.1094 200.2656,990.7969 202,990.7969 C202.5781,990.7969 203.1875,990.9531 203.6563,991.2031 C204.1406,991.4844 204.3125,991.7031 204.4063,992.1094 C204.4688,992.5156 204.5,992.6406 204.6406,992.7656 C204.7813,992.9063 205.0156,993.0156 205.2344,993.0156 C205.5,993.0156 205.7656,992.875 205.9375,992.6563 C206.0469,992.5 206.0781,992.3125 206.0781,991.8906 L206.0781,990.4688 C206.0781,990.0313 206.0625,989.9063 205.9688,989.75 C205.8125,989.4844 205.5313,989.3438 205.2344,989.3438 C204.9375,989.3438 204.7344,989.4375 204.5156,989.75 L204.3438,989.6719 Z " fill="#000000"/><text fill="#000000" font-family="sans-serif" font-size="14" lengthAdjust="spacing" textLength="68" x="216" y="998.8467">Database</text><line style="stroke:#181818;stroke-width:0.5;" x1="188" x2="286" y1="1010" y2="1010"/><ellipse cx="198" cy="1023.6484" fill="none" rx="3" ry="3" style="stroke:#038048;stroke-width:1.0;"/><text fill="#000000" font-family="sans-serif" font-size="14" lengthAdjust="spacing" textLength="44" x="207" y="1026.9951">GORM</text><line style="stroke:#181818;stroke-width:0.5;" x1="188" x2="286" y1="1034.2969" y2="1034.2969"/></g><!--class API--><g id="elem_API"><rect codeLine="47" fill="#F1F1F1" height="129.4844" id="API" rx="2.5" ry="2.5" style="stroke:#181818;stroke-width:0.5;" width="186" x="340" y="197"/><ellipse cx="417.25" cy="213" fill="#ADD1B2" rx="11" ry="11" style="stroke:#181818;stroke-width:1.0;"/><path d="M419.5938,208.6719 C418.6563,208.2344 418.0625,208.0938 417.1875,208.0938 C414.5625,208.0938 412.5625,210.1719 412.5625,212.8906 L412.5625,214.0156 C412.5625,216.5938 414.6719,218.4844 417.5625,218.4844 C418.7813,218.4844 419.9375,218.1875 420.6875,217.6406 C421.2656,217.2344 421.5938,216.7813 421.5938,216.3906 C421.5938,215.9375 421.2031,215.5469 420.7344,215.5469 C420.5156,215.5469 420.3125,215.625 420.125,215.8125 C419.6719,216.2969 419.6719,216.2969 419.4844,216.3906 C419.0625,216.6563 418.375,216.7813 417.6094,216.7813 C415.5625,216.7813 414.2656,215.6875 414.2656,213.9844 L414.2656,212.8906 C414.2656,211.1094 415.5156,209.7969 417.25,209.7969 C417.8281,209.7969 418.4375,209.9531 418.9063,210.2031 C419.3906,210.4844 419.5625,210.7031 419.6563,211.1094 C419.7188,211.5156 419.75,211.6406 419.8906,211.7656 C420.0313,211.9063 420.2656,212.0156 420.4844,212.0156 C420.75,212.0156 421.0156,211.875 421.1875,211.6563 C421.2969,211.5 421.3281,211.3125 421.3281,210.8906 L421.3281,209.4688 C421.3281,209.0313 421.3125,208.9063 421.2188,208.75 C421.0625,208.4844 420.7813,208.3438 420.4844,208.3438 C420.1875,208.3438 419.9844,208.4375 419.7656,208.75 L419.5938,208.6719 Z " fill="#000000"/><text fill="#000000" font-family="sans-serif" font-size="14" lengthAdjust="spacing" textLength="23" x="437.75" y="217.8467">API</text><line style="stroke:#181818;stroke-width:0.5;" x1="341" x2="525" y1="229" y2="229"/><ellipse cx="351" cy="242.6484" fill="none" rx="3" ry="3" style="stroke:#038048;stroke-width:1.0;"/><text fill="#000000" font-family="sans-serif" font-size="14" lengthAdjust="spacing" textLength="88" x="360" y="245.9951">/meps [GET]</text><ellipse cx="351" cy="258.9453" fill="none" rx="3" ry="3" style="stroke:#038048;stroke-width:1.0;"/><text fill="#000000" font-family="sans-serif" font-size="14" lengthAdjust="spacing" textLength="107" x="360" y="262.292">/person [POST]</text><ellipse cx="351" cy="275.2422" fill="none" rx="3" ry="3" style="stroke:#038048;stroke-width:1.0;"/><text fill="#000000" font-family="sans-serif" font-size="14" lengthAdjust="spacing" textLength="134" x="360" y="278.5889">/person/{id} [GET]</text><ellipse cx="351" cy="291.5391" fill="none" rx="3" ry="3" style="stroke:#038048;stroke-width:1.0;"/><text fill="#000000" font-family="sans-serif" font-size="14" lengthAdjust="spacing" textLength="132" x="360" y="294.8857">/person/{id} [PUT]</text><ellipse cx="351" cy="307.8359" fill="none" rx="3" ry="3" style="stroke:#038048;stroke-width:1.0;"/><text fill="#000000" font-family="sans-serif" font-size="14" lengthAdjust="spacing" textLength="160" x="360" y="311.1826">/person/{id} [DELETE]</text><line style="stroke:#181818;stroke-width:0.5;" x1="341" x2="525" y1="318.4844" y2="318.4844"/></g><!--link App to Controllers--><g id="link_App_Controllers"><path codeLine="56" d="M268.002,120.055 C258.826,143.326 249.569,170.974 245,197 C232.774,266.644 238.0398,341.9411 245.0378,396.8751 " fill="none" id="App-to-Controllers" style="stroke:#181818;stroke-width:1.0;stroke-dasharray:7.0,7.0;"/><polygon fill="#181818" points="245.796,402.827,248.6266,393.3937,245.1642,397.8671,240.6908,394.4046,245.796,402.827" style="stroke:#181818;stroke-width:1.0;"/><polygon fill="#000000" points="249.5866,266.5493,253.2633,257.7781,247.4056,257.2922,249.5866,266.5493" style="stroke:#000000;stroke-width:1.0;"/><text fill="#000000" font-family="sans-serif" font-size="13" lengthAdjust="spacing" textLength="63" x="259" y="266.0669">delegates</text></g><!--link App to API--><g id="link_App_API"><path codeLine="57" d="M332.744,120.141 C349.801,144.022 366.3386,167.1746 383.9886,191.8846 " fill="none" id="App-to-API" style="stroke:#181818;stroke-width:1.0;stroke-dasharray:7.0,7.0;"/><polygon fill="#181818" points="387.476,196.767,385.4998,187.1184,384.5698,192.6983,378.9899,191.7684,387.476,196.767" style="stroke:#181818;stroke-width:1.0;"/><polygon fill="#000000" points="370.9062,162.6351,368.0404,153.5666,363.2574,156.983,370.9062,162.6351" style="stroke:#000000;stroke-width:1.0;"/><text fill="#000000" font-family="sans-serif" font-size="13" lengthAdjust="spacing" textLength="92" x="377" y="163.0669">defines routes</text></g><!--link Controllers to Person--><g id="link_Controllers_Person"><path codeLine="58" d="M219.48,532.18 C214.125,542.078 208.802,552.253 204,562 C196.577,577.066 191.6062,587.4912 184.3812,603.4142 " fill="none" id="Controllers-to-Person" style="stroke:#181818;stroke-width:1.0;stroke-dasharray:7.0,7.0;"/><polygon fill="#181818" points="181.902,608.878,189.2634,602.335,183.968,604.3248,181.9782,599.0294,181.902,608.878" style="stroke:#181818;stroke-width:1.0;"/><polygon fill="#000000" points="206.7901,575.0515,213.4241,568.2368,208.1516,565.6389,206.7901,575.0515" style="stroke:#000000;stroke-width:1.0;"/><text fill="#000000" font-family="sans-serif" font-size="13" lengthAdjust="spacing" textLength="60" x="218" y="575.0669">manages</text></g><!--link Person to Database--><g id="link_Person_Database"><path codeLine="59" d="M187.637,901.338 C200.866,930.191 210.9814,952.253 220.1474,972.2446 " fill="none" id="Person-to-Database" style="stroke:#181818;stroke-width:1.0;stroke-dasharray:7.0,7.0;"/><polygon fill="#181818" points="222.648,977.6987,222.5331,967.8505,220.5641,973.1537,215.261,971.1847,222.648,977.6987" style="stroke:#181818;stroke-width:1.0;"/><polygon fill="#000000" points="216.0839,944.1115,214.9856,934.6645,209.6426,937.1143,216.0839,944.1115" style="stroke:#000000;stroke-width:1.0;"/><text fill="#000000" font-family="sans-serif" font-size="13" lengthAdjust="spacing" textLength="50" x="223" y="944.0669">persists</text></g><!--link API to Controllers--><g id="link_API_Controllers"><path codeLine="60" d="M377.724,326.208 C356.525,350.641 336.2821,373.9721 315.0931,398.3931 " fill="none" id="API-to-Controllers" style="stroke:#181818;stroke-width:1.0;stroke-dasharray:7.0,7.0;"/><polygon fill="#181818" points="311.161,402.925,320.0805,398.7486,314.4378,399.1484,314.0379,393.5057,311.161,402.925" style="stroke:#181818;stroke-width:1.0;"/><polygon fill="#000000" points="350.7232,368.343,358.8708,363.4371,354.4311,359.585,350.7232,368.343" style="stroke:#000000;stroke-width:1.0;"/><text fill="#000000" font-family="sans-serif" font-size="13" lengthAdjust="spacing" textLength="118" x="363" y="369.0669">routes requests to</text></g><!--link Controllers to Database--><g id="link_Controllers_Database"><path codeLine="61" d="M276.942,532.109 C279.453,542.017 281.615,552.213 283,562 C284.059,569.481 283.01,571.444 283,579 C282.778,743 333.456,792.281 282,948 C278.49,958.6213 275.9081,964.0831 269.2711,973.0949 " fill="none" id="Controllers-to-Database" style="stroke:#181818;stroke-width:1.0;stroke-dasharray:7.0,7.0;"/><polygon fill="#181818" points="265.713,977.9261,274.2709,973.0514,268.678,973.9001,267.8293,968.3073,265.713,977.9261" style="stroke:#181818;stroke-width:1.0;"/><polygon fill="#000000" points="309.913,760.0656,313.0088,751.073,307.1319,750.9708,309.913,760.0656" style="stroke:#000000;stroke-width:1.0;"/><text fill="#000000" font-family="sans-serif" font-size="13" lengthAdjust="spacing" textLength="87" x="319" y="759.5669">interacts with</text></g><!--SRC=[ZLHDRwCm4BtpAznJsrs9t3b48i2caT869N2gUd1WGYmPmzfclwh-znrZXqAJLCs1m7kFcJSVvgQ40nD0jacKXK_BTK8AJfNoRXmUXrcu27SVuMYzoME7URSa4Pff1ifx3vE2L8qWhnx1t_TL792kOwMVvwlOGf44gg4CTK0qgy7Fy6APl2slC35mS4pLoDeVdYqTxfiEAQKb4vM5rdGFV0ejsIyGJxI6AVo3rep_FSTJJWlO71PCwkEKYR3cVo3KaRLJejV6MCE50kWLPbK2Dl70G4vZvMqByfgtdZolvytC96nRpWgg6KuXQYICPeFKQJ1Rx9X9-QrYmay4NfsVg147LWN4_Zlt2oFi6x-mo0vqr_OnrDszpOilQDbmZlEVFL1HcfjHxX5zyh04_PYaoedl2cl62E6FlXzlYrsgJuLsURuWjBlp1I7Q-rpLbur3fNkgm1jEp0aPojni7zreqXM9UDELdZr7vjc9PZMqYZmla-p50QqzIC_fPlS1cxsoyks2rk5fVXcFatMI9I_MoXPulo9cYPLd5iFtvvCX1QJ4JbNOL4NcWy9ODepv6YWY-mr0UloYaRclG41gAcZLInnasA530J4EcT9z2WnzRiAbaF2p0wFJpOLqeu0CXoDfWShVJ1_9_3y0]--></g></svg>